<svg width="73" height="69" viewBox="0 0 73 69" fill="none" xmlns="http://www.w3.org/2000/svg">
<g clip-path="url(#clip0_11_61)">
<path d="M36.1547 68.9953C16.1879 69.0324 -0.00944313 53.5594 4.13055e-06 34.4677C0.00945138 15.5054 16.1879 0.0185027 36.0035 1.64884e-05C55.9514 -0.0184697 72.2101 15.51 72.1724 34.5555C72.1346 53.5409 56.0033 68.9631 36.1547 69V68.9953ZM35.9941 59.1746C50.2359 59.2023 61.8465 48.1428 61.8606 34.5416C61.8701 20.9496 50.2311 9.7931 36.0554 9.81159C21.946 9.83008 10.3873 20.8665 10.34 34.366C10.2928 48.0457 21.7712 59.1421 35.9941 59.1746Z" fill="black"/>
<path d="M44.8527 33.4465C48.9456 35.8185 50.752 39.2138 49.8111 43.7328C48.8185 48.5054 45.6431 51.1834 40.9809 51.6999C37.8148 52.0539 34.5452 52.1829 31.398 51.8003C26.3313 51.1834 23.3157 48.3094 22.403 44.0007C21.4528 39.5247 22.8265 36.5166 27.2345 33.4226C27.1923 33.284 27.1969 33.0783 27.1076 33.0209C24.2707 31.175 22.8454 28.5735 23.2969 25.1447C23.7627 21.625 26.0208 19.4062 29.121 18.2489C34.0184 16.4268 39.0379 16.5416 43.8036 18.6315C50.0322 21.362 50.5168 27.9901 44.8527 33.4416V33.4465ZM31.6708 41.3275C31.6849 44.2015 33.6468 46.3822 36.1871 46.3391C38.5535 46.3008 40.4963 44.0628 40.534 41.3514C40.5669 38.5873 38.5346 36.2584 36.0602 36.2297C33.5197 36.2009 31.6568 38.3625 31.6708 41.3275ZM35.9331 30.5628C38.2053 30.6345 39.7107 29.2669 39.8237 27.0433C39.9413 24.7192 38.4593 23.0119 36.22 22.897C33.9571 22.7775 32.2354 24.346 32.1648 26.5937C32.0894 28.8795 33.6279 30.4958 35.9331 30.5676V30.5628Z" fill="black"/>
</g>
<defs>
<clipPath id="clip0_11_61">
<rect width="72.1724" height="69" fill="white"/>
</clipPath>
</defs>
</svg>
