<svg width="83" height="55" viewBox="0 0 83 55" fill="none" xmlns="http://www.w3.org/2000/svg">
<path d="M77.1389 6.37973C76.3016 6.37973 75.5839 6.07594 74.9858 5.46834C74.4276 4.86075 74.1485 4.09113 74.1485 3.15949C74.1485 2.22784 74.4276 1.47848 74.9858 0.91139C75.5839 0.303797 76.3016 0 77.1389 0C77.9762 0 78.6739 0.303797 79.2321 0.91139C79.7903 1.47848 80.0694 2.22784 80.0694 3.15949C80.0694 4.09113 79.7903 4.86075 79.2321 5.46834C78.6739 6.07594 77.9762 6.37973 77.1389 6.37973ZM72.1151 43.1391C71.517 43.1391 71.218 42.9164 71.218 42.4708C71.218 42.1062 71.4771 41.8632 71.9954 41.7417L72.7131 41.6201C73.7099 41.4581 74.3479 41.2151 74.627 40.891C74.9061 40.5265 75.0456 39.9189 75.0456 39.0683V18.6531C75.0456 17.924 74.926 17.4379 74.6868 17.1949C74.4874 16.9114 74.1086 16.7291 73.5504 16.6481L72.2945 16.4658C71.7762 16.4253 71.517 16.2025 71.517 15.7974C71.517 15.4734 71.836 15.2506 72.4739 15.1291C73.7099 14.9265 74.7067 14.6025 75.4643 14.1569C76.2218 13.7114 76.9595 13.1645 77.6771 12.5164C78.036 12.1519 78.335 11.9696 78.5743 11.9696C78.9331 11.9696 79.1125 12.2126 79.1125 12.6987V39.0683C79.1125 39.9189 79.2321 40.5265 79.4714 40.891C79.7106 41.2556 80.1691 41.4784 80.8469 41.5594L82.3421 41.7417C82.7807 41.8227 83 42.0455 83 42.41C83 42.8961 82.701 43.1391 82.1029 43.1391H72.1151Z" fill="black"/>
<path d="M32.3904 43.1263C31.3936 43.1263 30.4367 42.9036 29.5197 42.458C28.6026 42.0124 27.8451 41.3036 27.247 40.3314C26.6489 39.3593 26.3499 38.0631 26.3499 36.4428V15.2986C26.3499 14.5695 26.2302 14.0631 25.991 13.7796C25.7917 13.496 25.4129 13.334 24.8547 13.2935L23.838 13.172C23.1601 13.091 22.8212 12.8277 22.8212 12.3821C22.8212 11.8555 23.2 11.5922 23.9576 11.5922H29.5197C30.1177 11.5922 30.4168 11.896 30.4168 12.5036V35.1669C30.4168 37.0302 30.7557 38.3669 31.4335 39.177C32.1512 39.9466 33.128 40.3314 34.364 40.3314C35.6001 40.3314 36.6965 39.9871 37.6535 39.2985C38.6104 38.5694 39.3679 37.6175 39.9261 36.4428C40.5242 35.2276 40.8232 33.9112 40.8232 32.4935V15.2986C40.8232 14.5695 40.7036 14.0631 40.4644 13.7796C40.265 13.496 39.8863 13.334 39.3281 13.2935L38.3113 13.172C37.6335 13.091 37.2946 12.8277 37.2946 12.3821C37.2946 11.8555 37.6734 11.5922 38.4309 11.5922H43.993C44.5911 11.5922 44.8901 11.896 44.8901 12.5036V36.0783C44.8901 36.8074 44.9898 37.3137 45.1892 37.5972C45.4284 37.8403 45.8271 38.0023 46.3853 38.0833L47.6413 38.2656C48.1596 38.3061 48.4188 38.5086 48.4188 38.8732C48.4188 39.2377 48.0998 39.4808 47.4619 39.6023C46.2258 39.7643 45.2291 40.0884 44.4715 40.5744C43.7538 41.0605 43.1159 41.6479 42.5577 42.3365C42.1988 42.701 41.8998 42.8833 41.6605 42.8833C41.3017 42.8833 41.1223 42.6403 41.1223 42.1542V39.3593C41.1223 39.0352 41.0027 38.8529 40.7634 38.8124C40.5641 38.7314 40.3448 38.8124 40.1056 39.0555C38.6303 40.5542 37.3145 41.6074 36.1583 42.215C35.0419 42.8225 33.7859 43.1263 32.3904 43.1263Z" fill="black"/>
<path d="M12.3203 55C11.7222 55 11.4232 54.757 11.4232 54.2709C11.4232 53.9063 11.6425 53.6835 12.0811 53.6025L14.294 53.2987C15.1313 53.1772 15.6695 52.9544 15.9088 52.6304C16.1879 52.3468 16.3274 51.7798 16.3274 50.9291V39.8102C16.3274 39.4861 16.1879 39.2836 15.9088 39.2026C15.6297 39.081 15.3506 39.1823 15.0715 39.5064C14.0747 40.8431 13.1377 41.7747 12.2605 42.3013C11.3833 42.8279 10.3068 43.0912 9.03091 43.0912C7.27656 43.0912 5.70163 42.4836 4.30613 41.2684C2.9505 40.0127 1.8939 38.2912 1.13634 36.1038C0.37878 33.876 0 31.3039 0 28.3874C0 24.9849 0.518329 22.0077 1.55499 19.4558C2.59165 16.8634 4.02703 14.8381 5.86112 13.3798C7.69521 11.9216 9.76854 11.1925 12.0811 11.1925C12.8785 11.1925 13.6161 11.314 14.294 11.5571C15.0116 11.8001 15.7493 12.2052 16.5068 12.7723C17.384 13.3798 18.1814 13.2178 18.8991 12.2862C19.2978 11.8406 19.5969 11.5571 19.7962 11.4355C20.0355 11.2735 20.2348 11.1925 20.3943 11.1925C20.8329 11.1925 20.9924 11.4761 20.8728 12.0431C20.7133 12.9343 20.5937 14.1292 20.5139 15.6279C20.4342 17.0862 20.3943 19.0305 20.3943 21.4608V50.9291C20.3943 51.7798 20.5139 52.3873 20.7531 52.7519C21.0322 53.1165 21.5905 53.3595 22.4278 53.481L23.2651 53.6025C23.7834 53.643 24.0426 53.8861 24.0426 54.3316C24.0426 54.7772 23.7435 55 23.1454 55H12.3203ZM10.3467 40.2962C11.3833 40.2962 12.3403 39.9519 13.2174 39.2633C14.1345 38.5342 14.8721 37.5621 15.4303 36.3469C16.0284 35.1317 16.3274 33.7747 16.3274 32.276V18.6052C16.3274 16.7824 15.9088 15.3444 15.0715 14.2912C14.274 13.2381 13.2174 12.7115 11.9017 12.7115C9.66886 12.7115 7.8547 14.0482 6.4592 16.7216C5.10357 19.3545 4.42575 22.9596 4.42575 27.5368C4.42575 31.7089 4.94408 34.8887 5.98074 37.076C7.05727 39.2228 8.51258 40.2962 10.3467 40.2962Z" fill="black"/>
<path d="M63.997 11.1925C65.6716 11.1925 67.0472 11.7191 68.1237 12.7722C69.2002 13.8659 69.7385 15.3039 69.7385 17.0862C69.7385 18.8279 69.2002 20.4684 68.1237 22.0077C67.0472 23.5874 65.5719 25.0051 63.698 26.2608C61.824 27.5165 59.6909 28.5292 57.2986 29.2988C56.7803 29.4608 56.5211 29.8051 56.5211 30.3317V35.8608C56.5211 37.8051 56.8201 39.1823 57.4182 39.9924C58.0163 40.8431 58.8336 41.2684 59.8703 41.2684C60.8671 41.2684 61.7841 40.8026 62.6214 39.8709C63.4189 38.9798 63.997 37.4608 64.3559 35.314C64.5552 34.0178 64.9938 33.0659 65.6716 32.4583C66.3096 31.8912 66.9675 31.6076 67.6453 31.6076C68.7617 31.6076 69.3199 32.1747 69.3199 33.3089C69.3199 34.4836 69.0009 35.638 68.3629 36.7722C67.6851 37.9469 66.808 39 65.7314 39.9317C64.6549 40.9038 63.4787 41.6734 62.2028 42.2405C60.9269 42.8076 59.651 43.0912 58.3751 43.0912C54.4278 43.0912 52.4542 40.762 52.4542 36.1038V17.5115C52.4542 15.8102 52.0355 14.9596 51.1982 14.9596C50.6799 14.9596 50.2014 15.3039 49.7629 15.9925C49.3243 16.7216 49.105 17.9368 49.105 19.638C49.105 20.2861 48.8458 20.6102 48.3275 20.6102C47.849 20.6102 47.6098 20.2659 47.6098 19.5773C47.6098 16.6203 48.1281 14.4735 49.1648 13.1368C50.1616 11.8406 51.2979 11.1925 52.5738 11.1925C53.5307 11.1925 54.2883 11.5773 54.8465 12.3469C55.4047 13.1571 55.7835 14.109 55.9828 15.2026C56.0227 15.6077 56.2021 15.8102 56.5211 15.8102C56.8002 15.8507 57.0793 15.6684 57.3584 15.2634C58.3153 13.9267 59.2922 12.914 60.289 12.2254C61.2857 11.5368 62.5218 11.1925 63.997 11.1925ZM62.3822 13.9874C61.3456 13.9874 60.3886 14.352 59.5115 15.0811C58.6343 15.8507 57.9166 16.8634 57.3584 18.1191C56.8002 19.3748 56.5211 20.7925 56.5211 22.3722V26.8077C56.5211 27.5773 56.9397 27.8001 57.777 27.476C60.2092 26.5849 62.1031 25.3494 63.4587 23.7697C64.7745 22.2305 65.4324 20.3672 65.4324 18.1798C65.4324 15.3849 64.4157 13.9874 62.3822 13.9874Z" fill="black"/>
</svg>
